<svg xmlns="http://www.w3.org/2000/svg" height="auto" viewBox="0 0 487.506 145.859">
  <g fill="#430778">
    <path d="M7.834 143.245c-1.849-1.742-2.774-4.251-2.774-7.525v-16.132H.342v-7.27H5.06v-8.863h9.947v8.863h7.079v7.27h-7.079v14.921c0 1.106.233 1.924.702 2.455.468.532 1.254.797 2.36.797a6.79 6.79 0 0 0 2.104-.351 6.237 6.237 0 0 0 1.913-.988v8.099c-1.617.892-3.593 1.339-5.93 1.339-3.699-.001-6.473-.873-8.322-2.615zM76.095 130.938H54.796c.807 4.464 3.804 6.695 8.991 6.695 1.572 0 3.113-.224 4.623-.67a44.849 44.849 0 0 0 4.814-1.753v8.162c-3.486 1.445-7.396 2.168-11.733 2.168-3.274 0-6.143-.669-8.608-2.009-2.466-1.339-4.379-3.262-5.739-5.771-1.361-2.508-2.041-5.462-2.041-8.863 0-5.612 1.392-9.958 4.177-13.041 2.783-3.081 6.748-4.623 11.892-4.623 10.077.001 15.05 6.569 14.923 19.705zm-21.362-6.058h11.924c-.298-2.295-.904-3.932-1.817-4.91-.914-.977-2.264-1.467-4.049-1.467-3.402 0-5.421 2.127-6.058 6.377zM106.893 143.564c-2.551-1.233-4.581-3.093-6.09-5.58-1.509-2.487-2.264-5.515-2.264-9.086 0-5.739 1.53-10.085 4.591-13.041 3.06-2.954 7.142-4.431 12.243-4.431 1.785 0 3.592.181 5.42.542 1.827.362 3.443.86 4.846 1.498v8.162c-1.744-.766-3.295-1.349-4.655-1.754a14.277 14.277 0 0 0-4.081-.606c-2.806 0-4.996.691-6.568 2.072-1.573 1.382-2.359 3.539-2.359 6.472 0 3.274.733 5.697 2.2 7.269 1.467 1.573 3.857 2.36 7.173 2.36 2.508 0 5.293-.85 8.353-2.551v8.098a20.812 20.812 0 0 1-4.75 1.817c-1.637.404-3.475.606-5.516.606-3.145.001-5.992-.615-8.543-1.847zM177.353 114.231c2.082 1.871 3.125 4.932 3.125 9.182v21.17h-9.501V125.39c0-4.081-2.041-6.122-6.122-6.122-.979 0-1.977.149-2.997.446-1.021.298-1.807.66-2.36 1.084l-.128 23.785h-9.437V99.565h9.565v14.22c2.933-1.572 5.972-2.359 9.119-2.359 3.741-.001 6.653.935 8.736 2.805zM214.081 112.573c3.401-.765 6.441-1.148 9.119-1.148 4.548 0 7.97.892 10.266 2.678 2.295 1.786 3.443 4.718 3.443 8.8v21.681h-9.501v-19.767c0-3.699-2.083-5.548-6.249-5.548-.936 0-1.892.107-2.87.319-.979.213-1.744.468-2.295.765v24.231h-9.501V115.06c1.658-.893 4.187-1.722 7.588-2.487zM265.22 141.204c-2.72-2.891-4.08-7.184-4.08-12.881 0-5.951 1.349-10.288 4.048-13.008s6.792-4.081 12.275-4.081c5.484 0 9.607 1.392 12.372 4.176 2.763 2.785 4.145 7.089 4.145 12.913 0 5.611-1.425 9.884-4.273 12.816-2.848 2.933-6.929 4.4-12.243 4.4-5.441.001-9.523-1.443-12.244-4.335zm17.537-5.707c1.19-1.636 1.784-4.027 1.784-7.173 0-3.444-.585-5.899-1.753-7.365-1.171-1.467-2.945-2.2-5.325-2.2-2.466 0-4.24.733-5.324 2.2s-1.626 3.922-1.626 7.365c0 3.274.563 5.697 1.689 7.269 1.126 1.573 2.88 2.359 5.261 2.359 2.339 0 4.103-.818 5.294-2.455zM318.146 144.584v-44.445h9.438v44.445h-9.438zM377.32 113.816c2.89 1.637 4.337 4.582 4.337 8.832l-.064 15.24c-.043 2.678-1.383 4.623-4.018 5.834-2.636 1.212-6.483 1.817-11.542 1.817-9.438 0-14.156-3.676-14.156-11.031 0-3.103.966-5.526 2.9-7.269 1.934-1.743 4.814-2.614 8.641-2.614 1.572 0 3.146.202 4.718.606 1.572.404 2.933.925 4.081 1.562v-2.041c0-3.699-2.38-5.548-7.142-5.548-1.828 0-3.709.33-5.643.989-1.934.66-3.475 1.457-4.623 2.391v-8.418c1.148-.765 2.9-1.423 5.261-1.976 2.359-.552 4.898-.829 7.619-.829 3.53 0 6.739.819 9.631 2.455zm-6.377 24.583c.85-.297 1.275-.893 1.275-1.786v-4.974c-1.488-.51-3.124-.765-4.91-.765-2.083 0-3.602.309-4.559.925-.957.617-1.435 1.584-1.435 2.902 0 1.233.5 2.232 1.498 2.997.999.765 2.178 1.148 3.54 1.148 2.209-.001 3.74-.149 4.591-.447zM435.665 115.761c2.508 2.891 3.762 7.078 3.762 12.562-.043 11.477-5.698 17.217-16.962 17.217-9.863 0-14.794-2.806-14.794-8.417v-36.73h9.31v13.073c1.148-.68 2.456-1.19 3.922-1.531 1.467-.339 2.773-.51 3.921-.51 4.718 0 8.332 1.446 10.841 4.336zm-5.74 13.136c0-6.589-2.466-9.884-7.397-9.884-.892 0-1.849.118-2.869.351-1.021.234-1.914.564-2.679.989v14.283c0 1.999 1.786 2.998 5.357 2.998 5.059-.001 7.588-2.912 7.588-8.737zM467.802 144.934c-1.53-.404-3.232-.988-5.102-1.754v-8.353c3.443 2.593 7.056 3.889 10.84 3.889 1.445 0 2.497-.244 3.157-.733.658-.488.988-1.157.988-2.008 0-.977-.531-1.7-1.594-2.168-1.064-.467-2.764-.977-5.102-1.53-2.466-.51-4.495-1.53-6.089-3.061-1.594-1.53-2.392-3.762-2.392-6.695 0-2.508.638-4.569 1.914-6.185a11.095 11.095 0 0 1 4.814-3.539 16.64 16.64 0 0 1 6.026-1.116c2.551 0 4.623.223 6.216.67 1.595.446 3.157 1.138 4.687 2.072v7.461c-2.168-1.19-3.847-2.041-5.038-2.551-1.19-.51-2.572-.765-4.145-.765-1.572 0-2.741.245-3.507.733-.765.489-1.148 1.179-1.148 2.072 0 1.063.424 1.839 1.275 2.328s2.21.988 4.081 1.498c2.125.553 3.804 1.095 5.038 1.626 1.232.533 2.337 1.446 3.316 2.742.977 1.298 1.467 3.115 1.467 5.452-.086 3.657-1.467 6.324-4.146 8.003-2.678 1.678-6.079 2.518-10.202 2.518-2.038 0-3.823-.202-5.354-.606z"/>
  </g>
  <path fill="#430778" d="M48.745 20.815c3.625 4.296 5.439 10.422 5.439 18.378V73.52h-16.16V39.193c0-7.816-3.733-11.724-11.196-11.724-2.888 0-5.492 1.145-7.816 3.433-2.323 2.289-3.416 6.249-3.274 11.882V73.52H0V15.428h15.738v5.175c1.901-1.901 4.294-3.414 7.182-4.542 2.886-1.125 5.667-1.69 8.344-1.69 8.027.001 13.853 2.149 17.481 6.444z"/>
  <path fill="#DF678C" d="M121.517 88.149c-5.175 4.822-12.376 7.235-21.599 7.235-11.056 0-20.316-2.923-27.779-8.766l7.71-11.196c2.393 1.901 5.229 3.449 8.503 4.647 3.274 1.197 6.742 1.795 10.403 1.795 9.929 0 14.893-4.507 14.893-13.519v-.951c-4.225 3.451-9.648 5.175-16.266 5.175-6.126 0-11.513-1.284-16.16-3.855-4.647-2.57-8.204-6.073-10.668-10.51-2.466-4.436-3.697-9.33-3.697-14.682 0-5.421 1.231-10.332 3.697-14.734 2.464-4.399 6.002-7.904 10.615-10.509 4.611-2.604 10.016-3.908 16.213-3.908 6.618 0 12.041 1.727 16.266 5.175v-4.119h15.632v52.917c0 8.38-2.588 14.981-7.763 19.805zm-15.105-30.947c2.429-1.373 4.347-3.274 5.757-5.703 1.408-2.429 2.112-5.086 2.112-7.975 0-2.958-.705-5.632-2.112-8.027a15.31 15.31 0 0 0-5.757-5.651c-2.429-1.373-5.123-2.06-8.08-2.06-4.79 0-8.644 1.497-11.566 4.489-2.923 2.994-4.384 6.743-4.384 11.249 0 4.647 1.426 8.434 4.278 11.354 2.851 2.923 6.741 4.384 11.671 4.384 2.959-.001 5.653-.687 8.081-2.06zM159.751 72.147c-4.824-1.901-8.961-5.123-12.41-9.664-3.451-4.542-5.175-10.473-5.175-17.797 0-7.323 1.742-13.238 5.228-17.745 3.486-4.506 7.658-7.71 12.516-9.612 4.858-1.901 9.469-2.852 13.836-2.852 5.07 0 9.892 1.127 14.47 3.38 4.577 2.254 8.326 5.563 11.249 9.928 2.921 4.367 4.453 9.542 4.595 15.527 0 1.831-.036 3.416-.105 4.753-.071 1.338-.142 2.184-.211 2.535h-45.84c.845 4.085 2.958 6.866 6.337 8.344 3.38 1.479 6.549 2.218 9.506 2.218 3.802 0 6.829-.687 9.084-2.06 2.252-1.373 4.188-2.939 5.809-4.7l12.252 7.076c-6.62 9.014-15.668 13.52-27.145 13.52-4.508.001-9.173-.95-13.996-2.851zm3.222-40.611c-2.747 2.149-4.296 4.771-4.647 7.869h29.045c-.211-1.83-.916-3.591-2.112-5.281-1.198-1.69-2.799-3.08-4.806-4.172-2.007-1.091-4.277-1.638-6.812-1.638-4.367 0-7.922 1.074-10.668 3.222zM265.478 20.815c3.625 4.296 5.44 10.422 5.44 18.378V73.52h-16.162V39.193c0-7.816-3.732-11.724-11.194-11.724-2.888 0-5.492 1.145-7.816 3.433-2.323 2.289-3.416 6.249-3.274 11.882V73.52h-15.738V15.428h15.738v5.175c1.901-1.901 4.294-3.414 7.182-4.542 2.886-1.125 5.667-1.69 8.343-1.69 8.028.001 13.854 2.149 17.481 6.444z"/>
  <path fill="#430778" d="M376.485 72.147c-4.823-1.901-8.962-5.123-12.41-9.664-3.452-4.542-5.177-10.473-5.177-17.797 0-7.323 1.744-13.238 5.229-17.745 3.485-4.506 7.658-7.71 12.516-9.612 4.859-1.901 9.47-2.852 13.836-2.852 5.07 0 9.893 1.127 14.471 3.38 4.576 2.254 8.325 5.563 11.248 9.928 2.921 4.367 4.452 9.542 4.595 15.527 0 1.831-.036 3.416-.105 4.753-.071 1.338-.142 2.184-.211 2.535h-45.84c.845 4.085 2.958 6.866 6.337 8.344 3.379 1.479 6.548 2.218 9.506 2.218 3.803 0 6.83-.687 9.084-2.06 2.253-1.373 4.189-2.939 5.81-4.7l12.252 7.076c-6.619 9.014-15.668 13.52-27.145 13.52-4.509.001-9.174-.95-13.996-2.851zm3.221-40.611c-2.747 2.149-4.296 4.771-4.648 7.869h29.047c-.211-1.83-.916-3.591-2.112-5.281-1.199-1.69-2.8-3.08-4.807-4.172-2.007-1.091-4.277-1.638-6.812-1.638-4.367 0-7.921 1.074-10.668 3.222zM423.963 15.64h17.533l13.519 28.412 13.521-28.412h17.638l-31.159 60.415-31.052-60.415z"/>
  <path fill-rule="evenodd" clip-rule="evenodd" fill="#430778" d="M327.527 0v25.816c-.922-.519-1.591-.697-2.368-.902-.461-.124-.937-.249-1.527-.461-2.905-1.037-6.047-1.561-9.337-1.561-3.937 0-7.677.743-11.118 2.21-3.439 1.465-6.491 3.513-9.068 6.088-2.58 2.575-4.632 5.62-6.099 9.052-1.469 3.43-2.213 7.163-2.213 11.098s.744 7.668 2.213 11.098c1.467 3.43 3.519 6.475 6.099 9.051a28.486 28.486 0 0 0 3.417 2.911c4.739-4.185 10.909-6.489 17.371-6.489 3.147 0 6.221.539 9.133 1.601a25.734 25.734 0 0 1 7.677 4.407 28.31 28.31 0 0 0 2.771-2.43c2.578-2.573 4.63-5.618 6.099-9.051 1.483-3.468 2.753-8.674 2.753-9.371V0h-15.803zm-1.428 51.631c0 1.56-.298 3.058-.89 4.449a11.456 11.456 0 0 1-2.455 3.666 11.49 11.49 0 0 1-3.666 2.457 11.34 11.34 0 0 1-4.449.89c-1.562 0-3.058-.3-4.449-.89a11.504 11.504 0 0 1-3.668-2.457 11.95 11.95 0 0 1-2.489-3.666 10.91 10.91 0 0 1-.926-4.449c0-1.561.31-3.058.926-4.449a12.018 12.018 0 0 1 2.489-3.668 11.531 11.531 0 0 1 3.668-2.455c1.393-.59 2.891-.89 4.449-.89 1.556 0 3.054.3 4.449.89a11.511 11.511 0 0 1 3.666 2.455 11.587 11.587 0 0 1 2.455 3.632c.592 1.369.89 2.854.89 4.412v.073z"/>
</svg>
